<mxfile host="app.diagrams.net" modified="2021-03-07T18:24:42.442Z" agent="5.0 (Windows NT 10.0; Win64; x64) AppleWebKit/537.36 (KHTML, like Gecko) Chrome/88.0.4324.190 Safari/537.36" etag="6mCEmFoKDSqkMyNHJMbg" version="14.4.4" type="github">
  <diagram id="Uunz18mgdW6OLQOuuJnR" name="Page-1">
    <mxGraphModel dx="3076" dy="794" grid="1" gridSize="10" guides="1" tooltips="1" connect="1" arrows="1" fold="1" page="1" pageScale="1" pageWidth="1654" pageHeight="1169" background="none" math="0" shadow="0">
      <root>
        <mxCell id="0" />
        <mxCell id="1" parent="0" />
        <mxCell id="Yu_vnYscOk4ueQ48UthJ-1" value="Jatek" style="swimlane;fontStyle=1;align=center;verticalAlign=top;childLayout=stackLayout;horizontal=1;startSize=26;horizontalStack=0;resizeParent=1;resizeParentMax=0;resizeLast=0;collapsible=1;marginBottom=0;" parent="1" vertex="1">
          <mxGeometry x="270" width="160" height="100" as="geometry" />
        </mxCell>
        <mxCell id="Yu_vnYscOk4ueQ48UthJ-3" value="" style="line;strokeWidth=1;fillColor=none;align=left;verticalAlign=middle;spacingTop=-1;spacingLeft=3;spacingRight=3;rotatable=0;labelPosition=right;points=[];portConstraint=eastwest;" parent="Yu_vnYscOk4ueQ48UthJ-1" vertex="1">
          <mxGeometry y="26" width="160" height="8" as="geometry" />
        </mxCell>
        <mxCell id="Yu_vnYscOk4ueQ48UthJ-4" value="+ Inditas()&#xa;- JatekCiklus()" style="text;strokeColor=none;fillColor=none;align=left;verticalAlign=top;spacingLeft=4;spacingRight=4;overflow=hidden;rotatable=0;points=[[0,0.5],[1,0.5]];portConstraint=eastwest;" parent="Yu_vnYscOk4ueQ48UthJ-1" vertex="1">
          <mxGeometry y="34" width="160" height="66" as="geometry" />
        </mxCell>
        <mxCell id="Yu_vnYscOk4ueQ48UthJ-9" value="Palya" style="swimlane;fontStyle=1;align=center;verticalAlign=top;childLayout=stackLayout;horizontal=1;startSize=26;horizontalStack=0;resizeParent=1;resizeParentMax=0;resizeLast=0;collapsible=1;marginBottom=0;" parent="1" vertex="1">
          <mxGeometry x="530" y="10" width="240" height="160" as="geometry" />
        </mxCell>
        <mxCell id="Yu_vnYscOk4ueQ48UthJ-11" value="" style="line;strokeWidth=1;fillColor=none;align=left;verticalAlign=middle;spacingTop=-1;spacingLeft=3;spacingRight=3;rotatable=0;labelPosition=right;points=[];portConstraint=eastwest;" parent="Yu_vnYscOk4ueQ48UthJ-9" vertex="1">
          <mxGeometry y="26" width="240" height="8" as="geometry" />
        </mxCell>
        <mxCell id="Yu_vnYscOk4ueQ48UthJ-12" value="+ Napvihar()&#xa;+ Kor()&#xa;+ RemoveAszteroida(a: Aszteroida)&#xa;+ RemoveJatekosVezerli(l: Leptetheto)&#xa;+ RemoveAiVezerli(l: Leptetheto)&#xa;+ AddAiVezerli(l: Leptetheto, a: Aszteroida)&#xa;+ MegnyerhetoE(): bool&#xa;+ GyozelemE: bool&#xa;" style="text;strokeColor=none;fillColor=none;align=left;verticalAlign=top;spacingLeft=4;spacingRight=4;overflow=hidden;rotatable=0;points=[[0,0.5],[1,0.5]];portConstraint=eastwest;" parent="Yu_vnYscOk4ueQ48UthJ-9" vertex="1">
          <mxGeometry y="34" width="240" height="126" as="geometry" />
        </mxCell>
        <mxCell id="Yu_vnYscOk4ueQ48UthJ-22" value="&lt;p style=&quot;margin: 0px ; margin-top: 4px ; text-align: center&quot;&gt;&lt;i&gt;&amp;lt;&amp;lt;Interface&amp;gt;&amp;gt;&lt;/i&gt;&lt;br&gt;&lt;b&gt;Leptetheto&lt;/b&gt;&lt;/p&gt;&lt;hr size=&quot;1&quot;&gt;&lt;p style=&quot;margin: 0px ; margin-left: 4px&quot;&gt;+ Lepes()&lt;/p&gt;" style="verticalAlign=top;align=left;overflow=fill;fontSize=12;fontFamily=Helvetica;html=1;" parent="1" vertex="1">
          <mxGeometry x="750" y="218" width="190" height="62" as="geometry" />
        </mxCell>
        <mxCell id="Yu_vnYscOk4ueQ48UthJ-23" value="Aszteroida" style="swimlane;fontStyle=1;align=center;verticalAlign=top;childLayout=stackLayout;horizontal=1;startSize=26;horizontalStack=0;resizeParent=1;resizeParentMax=0;resizeLast=0;collapsible=1;marginBottom=0;" parent="1" vertex="1">
          <mxGeometry x="480" y="210" width="190" height="200" as="geometry" />
        </mxCell>
        <mxCell id="Yu_vnYscOk4ueQ48UthJ-24" value="- kulsoRetegek: int&#xa;- napkozelben: boolean" style="text;strokeColor=none;fillColor=none;align=left;verticalAlign=top;spacingLeft=4;spacingRight=4;overflow=hidden;rotatable=0;points=[[0,0.5],[1,0.5]];portConstraint=eastwest;" parent="Yu_vnYscOk4ueQ48UthJ-23" vertex="1">
          <mxGeometry y="26" width="190" height="34" as="geometry" />
        </mxCell>
        <mxCell id="Yu_vnYscOk4ueQ48UthJ-25" value="" style="line;strokeWidth=1;fillColor=none;align=left;verticalAlign=middle;spacingTop=-1;spacingLeft=3;spacingRight=3;rotatable=0;labelPosition=right;points=[];portConstraint=eastwest;" parent="Yu_vnYscOk4ueQ48UthJ-23" vertex="1">
          <mxGeometry y="60" width="190" height="8" as="geometry" />
        </mxCell>
        <mxCell id="Yu_vnYscOk4ueQ48UthJ-26" value="+ Fur()&#xa;+ Kinyer() : Nyersanyag&#xa;+ NapkozelbenE() : bool&#xa;+ AddSzomszed(m: Mezo)&#xa;+ RemoveSzomszed(m: Mezo)&#xa;+ Napvihar()&#xa;+ AddMag(n: Nyersanyag) : bool&#xa;+ Lepes()" style="text;strokeColor=none;fillColor=none;align=left;verticalAlign=top;spacingLeft=4;spacingRight=4;overflow=hidden;rotatable=0;points=[[0,0.5],[1,0.5]];portConstraint=eastwest;" parent="Yu_vnYscOk4ueQ48UthJ-23" vertex="1">
          <mxGeometry y="68" width="190" height="132" as="geometry" />
        </mxCell>
        <mxCell id="Yu_vnYscOk4ueQ48UthJ-27" value="Robot" style="swimlane;fontStyle=1;align=center;verticalAlign=top;childLayout=stackLayout;horizontal=1;startSize=26;horizontalStack=0;resizeParent=1;resizeParentMax=0;resizeLast=0;collapsible=1;marginBottom=0;" parent="1" vertex="1">
          <mxGeometry x="980" y="145" width="210" height="110" as="geometry" />
        </mxCell>
        <mxCell id="Yu_vnYscOk4ueQ48UthJ-29" value="" style="line;strokeWidth=1;fillColor=none;align=left;verticalAlign=middle;spacingTop=-1;spacingLeft=3;spacingRight=3;rotatable=0;labelPosition=right;points=[];portConstraint=eastwest;" parent="Yu_vnYscOk4ueQ48UthJ-27" vertex="1">
          <mxGeometry y="26" width="210" height="8" as="geometry" />
        </mxCell>
        <mxCell id="Yu_vnYscOk4ueQ48UthJ-30" value="+ Lepes()&#xa;+ Napvihar()&#xa;+ Robbanas()&#xa;+ Meghal()&#xa;+ NyerEllenoriz(e: Epitheto) : bool" style="text;strokeColor=none;fillColor=none;align=left;verticalAlign=top;spacingLeft=4;spacingRight=4;overflow=hidden;rotatable=0;points=[[0,0.5],[1,0.5]];portConstraint=eastwest;fontStyle=0" parent="Yu_vnYscOk4ueQ48UthJ-27" vertex="1">
          <mxGeometry y="34" width="210" height="76" as="geometry" />
        </mxCell>
        <mxCell id="Yu_vnYscOk4ueQ48UthJ-31" value="Telepes" style="swimlane;fontStyle=1;align=center;verticalAlign=top;childLayout=stackLayout;horizontal=1;startSize=26;horizontalStack=0;resizeParent=1;resizeParentMax=0;resizeLast=0;collapsible=1;marginBottom=0;" parent="1" vertex="1">
          <mxGeometry x="820" y="560" width="240" height="180" as="geometry" />
        </mxCell>
        <mxCell id="Yu_vnYscOk4ueQ48UthJ-32" value="" style="line;strokeWidth=1;fillColor=none;align=left;verticalAlign=middle;spacingTop=-1;spacingLeft=3;spacingRight=3;rotatable=0;labelPosition=right;points=[];portConstraint=eastwest;" parent="Yu_vnYscOk4ueQ48UthJ-31" vertex="1">
          <mxGeometry y="26" width="240" height="8" as="geometry" />
        </mxCell>
        <mxCell id="Yu_vnYscOk4ueQ48UthJ-33" value="+ AnyagVisszatesz(n: Nyersanyag)&#xa;+ Banyasz()&#xa;+ Lepes()&#xa;+ Napvihar()&#xa;+ Robbanas()&#xa;+ Epit(e: Epitheto)&#xa;+ KapuLerak(k: Teleportkapu)&#xa;+ Meghal()&#xa;+ NyerEllenoriz(e: Epitheto) : bool" style="text;strokeColor=none;fillColor=none;align=left;verticalAlign=top;spacingLeft=4;spacingRight=4;overflow=hidden;rotatable=0;points=[[0,0.5],[1,0.5]];portConstraint=eastwest;fontStyle=0" parent="Yu_vnYscOk4ueQ48UthJ-31" vertex="1">
          <mxGeometry y="34" width="240" height="146" as="geometry" />
        </mxCell>
        <mxCell id="Yu_vnYscOk4ueQ48UthJ-34" value="Hajo" style="swimlane;fontStyle=3;align=center;verticalAlign=top;childLayout=stackLayout;horizontal=1;startSize=26;horizontalStack=0;resizeParent=1;resizeParentMax=0;resizeLast=0;collapsible=1;marginBottom=0;" parent="1" vertex="1">
          <mxGeometry x="1110" y="380" width="190" height="180" as="geometry" />
        </mxCell>
        <mxCell id="Yu_vnYscOk4ueQ48UthJ-35" value="" style="line;strokeWidth=1;fillColor=none;align=left;verticalAlign=middle;spacingTop=-1;spacingLeft=3;spacingRight=3;rotatable=0;labelPosition=right;points=[];portConstraint=eastwest;" parent="Yu_vnYscOk4ueQ48UthJ-34" vertex="1">
          <mxGeometry y="26" width="190" height="8" as="geometry" />
        </mxCell>
        <mxCell id="Yu_vnYscOk4ueQ48UthJ-36" value="+ Fur()&lt;br&gt;+ Mozog(m: Mezo)&lt;br&gt;+ Napvihar()&lt;br&gt;&lt;i&gt;+ Robbanas()&lt;br&gt;+ Lepes()&lt;br&gt;+ Meghal()&lt;/i&gt;&lt;br&gt;+ Tetlen()&lt;br&gt;+ MezoBeallit(m: Mezo)&lt;br&gt;&lt;i&gt;+ NyerEllenoriz(e: Epitheto) : bool&lt;/i&gt;" style="text;strokeColor=none;fillColor=none;align=left;verticalAlign=top;spacingLeft=4;spacingRight=4;overflow=hidden;rotatable=0;points=[[0,0.5],[1,0.5]];portConstraint=eastwest;fontStyle=0;html=1;" parent="Yu_vnYscOk4ueQ48UthJ-34" vertex="1">
          <mxGeometry y="34" width="190" height="146" as="geometry" />
        </mxCell>
        <mxCell id="Yu_vnYscOk4ueQ48UthJ-37" value="Nyersanyag" style="swimlane;fontStyle=3;align=center;verticalAlign=top;childLayout=stackLayout;horizontal=1;startSize=26;horizontalStack=0;resizeParent=1;resizeParentMax=0;resizeLast=0;collapsible=1;marginBottom=0;" parent="1" vertex="1">
          <mxGeometry x="220" y="240" width="210" height="84" as="geometry" />
        </mxCell>
        <mxCell id="Yu_vnYscOk4ueQ48UthJ-38" value="" style="line;strokeWidth=1;fillColor=none;align=left;verticalAlign=middle;spacingTop=-1;spacingLeft=3;spacingRight=3;rotatable=0;labelPosition=right;points=[];portConstraint=eastwest;" parent="Yu_vnYscOk4ueQ48UthJ-37" vertex="1">
          <mxGeometry y="26" width="210" height="8" as="geometry" />
        </mxCell>
        <mxCell id="Yu_vnYscOk4ueQ48UthJ-39" value="&lt;i&gt;+ Megfurva(a:Aszteroida)&lt;/i&gt;&lt;br&gt;&lt;i&gt;+ KompatibilisE(n Nyersanyag) : bool&lt;/i&gt;" style="text;strokeColor=none;fillColor=none;align=left;verticalAlign=top;spacingLeft=4;spacingRight=4;overflow=hidden;rotatable=0;points=[[0,0.5],[1,0.5]];portConstraint=eastwest;html=1;" parent="Yu_vnYscOk4ueQ48UthJ-37" vertex="1">
          <mxGeometry y="34" width="210" height="50" as="geometry" />
        </mxCell>
        <mxCell id="Yu_vnYscOk4ueQ48UthJ-41" value="Uran" style="swimlane;fontStyle=1;align=center;verticalAlign=top;childLayout=stackLayout;horizontal=1;startSize=26;horizontalStack=0;resizeParent=1;resizeParentMax=0;resizeLast=0;collapsible=1;marginBottom=0;" parent="1" vertex="1">
          <mxGeometry x="9" y="252" width="160" height="60" as="geometry" />
        </mxCell>
        <mxCell id="Yu_vnYscOk4ueQ48UthJ-42" value="" style="line;strokeWidth=1;fillColor=none;align=left;verticalAlign=middle;spacingTop=-1;spacingLeft=3;spacingRight=3;rotatable=0;labelPosition=right;points=[];portConstraint=eastwest;" parent="Yu_vnYscOk4ueQ48UthJ-41" vertex="1">
          <mxGeometry y="26" width="160" height="8" as="geometry" />
        </mxCell>
        <mxCell id="Yu_vnYscOk4ueQ48UthJ-43" value="+ Megfurva(a:Aszteroida)" style="text;strokeColor=none;fillColor=none;align=left;verticalAlign=top;spacingLeft=4;spacingRight=4;overflow=hidden;rotatable=0;points=[[0,0.5],[1,0.5]];portConstraint=eastwest;" parent="Yu_vnYscOk4ueQ48UthJ-41" vertex="1">
          <mxGeometry y="34" width="160" height="26" as="geometry" />
        </mxCell>
        <mxCell id="Yu_vnYscOk4ueQ48UthJ-44" value="Teleportkapu" style="swimlane;fontStyle=1;align=center;verticalAlign=top;childLayout=stackLayout;horizontal=1;startSize=26;horizontalStack=0;resizeParent=1;resizeParentMax=0;resizeLast=0;collapsible=1;marginBottom=0;" parent="1" vertex="1">
          <mxGeometry x="290" y="460" width="180" height="150" as="geometry">
            <mxRectangle x="250" y="490" width="110" height="26" as="alternateBounds" />
          </mxGeometry>
        </mxCell>
        <mxCell id="Yu_vnYscOk4ueQ48UthJ-47" value="- mukodikE : bool" style="text;strokeColor=none;fillColor=none;align=left;verticalAlign=top;spacingLeft=4;spacingRight=4;overflow=hidden;rotatable=0;points=[[0,0.5],[1,0.5]];portConstraint=eastwest;" parent="Yu_vnYscOk4ueQ48UthJ-44" vertex="1">
          <mxGeometry y="26" width="180" height="26" as="geometry" />
        </mxCell>
        <mxCell id="Yu_vnYscOk4ueQ48UthJ-45" value="" style="line;strokeWidth=1;fillColor=none;align=left;verticalAlign=middle;spacingTop=-1;spacingLeft=3;spacingRight=3;rotatable=0;labelPosition=right;points=[];portConstraint=eastwest;" parent="Yu_vnYscOk4ueQ48UthJ-44" vertex="1">
          <mxGeometry y="52" width="180" height="24" as="geometry" />
        </mxCell>
        <mxCell id="Yu_vnYscOk4ueQ48UthJ-46" value="+ HajoTeleportErkezik(h: Hajo)&#xa;+ RemoveSzomszed(m: Mezo)&#xa;+ Elront()" style="text;strokeColor=none;fillColor=none;align=left;verticalAlign=top;spacingLeft=4;spacingRight=4;overflow=hidden;rotatable=0;points=[[0,0.5],[1,0.5]];portConstraint=eastwest;" parent="Yu_vnYscOk4ueQ48UthJ-44" vertex="1">
          <mxGeometry y="76" width="180" height="74" as="geometry" />
        </mxCell>
        <mxCell id="Yu_vnYscOk4ueQ48UthJ-52" value="&lt;p style=&quot;margin: 0px ; margin-top: 4px ; text-align: center&quot;&gt;&lt;i&gt;&amp;lt;&amp;lt;Interface&amp;gt;&amp;gt;&lt;/i&gt;&lt;br&gt;&lt;b&gt;Mezo&lt;/b&gt;&lt;/p&gt;&lt;hr size=&quot;1&quot;&gt;&lt;p style=&quot;margin: 0px ; margin-left: 4px&quot;&gt;+ Robban()&lt;/p&gt;&lt;p style=&quot;margin: 0px ; margin-left: 4px&quot;&gt;+ RemoveSzomszed(m: Mezo)&lt;/p&gt;&lt;p style=&quot;margin: 0px ; margin-left: 4px&quot;&gt;+ HajoErkezik(h: Hajo)&lt;/p&gt;&lt;p style=&quot;margin: 0px ; margin-left: 4px&quot;&gt;+ HajoElhagy(h: Hajo)&lt;/p&gt;" style="verticalAlign=top;align=left;overflow=fill;fontSize=12;fontFamily=Helvetica;html=1;" parent="1" vertex="1">
          <mxGeometry x="590" y="485" width="190" height="105" as="geometry" />
        </mxCell>
        <mxCell id="Yu_vnYscOk4ueQ48UthJ-53" value="&lt;p style=&quot;margin: 0px ; margin-top: 4px ; text-align: center&quot;&gt;&lt;i&gt;&amp;lt;&amp;lt;Interface&amp;gt;&amp;gt;&lt;/i&gt;&lt;br&gt;&lt;b&gt;Szallithato&lt;/b&gt;&lt;/p&gt;&lt;hr size=&quot;1&quot;&gt;&lt;p style=&quot;margin: 0px ; margin-left: 4px&quot;&gt;&lt;/p&gt;&lt;p style=&quot;margin: 0px ; margin-left: 4px&quot;&gt;+ Megsemmisul()&lt;/p&gt;" style="verticalAlign=top;align=left;overflow=fill;fontSize=12;fontFamily=Helvetica;html=1;" parent="1" vertex="1">
          <mxGeometry x="-5" y="530" width="190" height="80" as="geometry" />
        </mxCell>
        <mxCell id="Yu_vnYscOk4ueQ48UthJ-54" value="" style="endArrow=diamondThin;endFill=1;endSize=24;html=1;entryX=1;entryY=0.5;entryDx=0;entryDy=0;" parent="1" source="Yu_vnYscOk4ueQ48UthJ-9" target="Yu_vnYscOk4ueQ48UthJ-4" edge="1">
          <mxGeometry width="160" relative="1" as="geometry">
            <mxPoint x="200" y="180" as="sourcePoint" />
            <mxPoint x="360" y="180" as="targetPoint" />
          </mxGeometry>
        </mxCell>
        <mxCell id="j5BLqk-0MgdrymZYCmfH-14" value="-palya&lt;br&gt;1" style="edgeLabel;html=1;align=center;verticalAlign=middle;resizable=0;points=[];" parent="Yu_vnYscOk4ueQ48UthJ-54" vertex="1" connectable="0">
          <mxGeometry x="0.7796" y="3" relative="1" as="geometry">
            <mxPoint x="68.91" y="-11.01" as="offset" />
          </mxGeometry>
        </mxCell>
        <mxCell id="Yu_vnYscOk4ueQ48UthJ-56" value="" style="endArrow=block;dashed=1;endFill=0;endSize=12;html=1;entryX=0.75;entryY=1;entryDx=0;entryDy=0;exitX=-0.019;exitY=0.009;exitDx=0;exitDy=0;exitPerimeter=0;" parent="1" source="Yu_vnYscOk4ueQ48UthJ-36" target="Yu_vnYscOk4ueQ48UthJ-22" edge="1">
          <mxGeometry width="160" relative="1" as="geometry">
            <mxPoint x="810" y="180" as="sourcePoint" />
            <mxPoint x="819.9999999999995" y="100" as="targetPoint" />
            <Array as="points">
              <mxPoint x="980" y="380" />
            </Array>
          </mxGeometry>
        </mxCell>
        <mxCell id="Yu_vnYscOk4ueQ48UthJ-58" value="Extends" style="endArrow=block;endSize=16;endFill=0;html=1;exitX=1;exitY=0;exitDx=0;exitDy=0;" parent="1" source="Yu_vnYscOk4ueQ48UthJ-31" target="Yu_vnYscOk4ueQ48UthJ-34" edge="1">
          <mxGeometry width="160" relative="1" as="geometry">
            <mxPoint x="980" y="544" as="sourcePoint" />
            <mxPoint x="1140" y="544" as="targetPoint" />
          </mxGeometry>
        </mxCell>
        <mxCell id="Yu_vnYscOk4ueQ48UthJ-59" value="Extends" style="endArrow=block;endSize=16;endFill=0;html=1;" parent="1" source="Yu_vnYscOk4ueQ48UthJ-27" target="Yu_vnYscOk4ueQ48UthJ-34" edge="1">
          <mxGeometry width="160" relative="1" as="geometry">
            <mxPoint x="1050" y="436.9565217391305" as="sourcePoint" />
            <mxPoint x="1120" y="485.0434782608695" as="targetPoint" />
          </mxGeometry>
        </mxCell>
        <mxCell id="Yu_vnYscOk4ueQ48UthJ-60" value="" style="endArrow=diamondThin;endFill=1;endSize=24;html=1;exitX=1;exitY=0.75;exitDx=0;exitDy=0;" parent="1" source="Yu_vnYscOk4ueQ48UthJ-53" target="Yu_vnYscOk4ueQ48UthJ-31" edge="1">
          <mxGeometry width="160" relative="1" as="geometry">
            <mxPoint x="510" y="710" as="sourcePoint" />
            <mxPoint x="670" y="710" as="targetPoint" />
            <Array as="points">
              <mxPoint x="310" y="640" />
              <mxPoint x="770" y="620" />
            </Array>
          </mxGeometry>
        </mxCell>
        <mxCell id="j5BLqk-0MgdrymZYCmfH-17" value="- nyersanyagRakter&lt;br&gt;0..10" style="edgeLabel;html=1;align=center;verticalAlign=middle;resizable=0;points=[];" parent="Yu_vnYscOk4ueQ48UthJ-60" vertex="1" connectable="0">
          <mxGeometry x="0.8859" y="-6" relative="1" as="geometry">
            <mxPoint x="-599.96" y="-5.169999999999995" as="offset" />
          </mxGeometry>
        </mxCell>
        <mxCell id="Yu_vnYscOk4ueQ48UthJ-61" value="" style="endArrow=block;dashed=1;endFill=0;endSize=12;html=1;" parent="1" source="Yu_vnYscOk4ueQ48UthJ-37" target="Yu_vnYscOk4ueQ48UthJ-53" edge="1">
          <mxGeometry width="160" relative="1" as="geometry">
            <mxPoint x="110" y="580" as="sourcePoint" />
            <mxPoint x="270" y="580" as="targetPoint" />
          </mxGeometry>
        </mxCell>
        <mxCell id="Yu_vnYscOk4ueQ48UthJ-63" value="" style="endArrow=block;dashed=1;endFill=0;endSize=12;html=1;" parent="1" source="Yu_vnYscOk4ueQ48UthJ-44" target="Yu_vnYscOk4ueQ48UthJ-53" edge="1">
          <mxGeometry width="160" relative="1" as="geometry">
            <mxPoint x="254.289940828402" y="404.0000000000002" as="sourcePoint" />
            <mxPoint x="331.18343195266243" y="630" as="targetPoint" />
          </mxGeometry>
        </mxCell>
        <mxCell id="Yu_vnYscOk4ueQ48UthJ-64" value="" style="endArrow=block;dashed=1;endFill=0;endSize=12;html=1;" parent="1" source="Yu_vnYscOk4ueQ48UthJ-44" target="Yu_vnYscOk4ueQ48UthJ-52" edge="1">
          <mxGeometry width="160" relative="1" as="geometry">
            <mxPoint x="471.8059915381464" y="590" as="sourcePoint" />
            <mxPoint x="374.9499999999998" y="681.54" as="targetPoint" />
          </mxGeometry>
        </mxCell>
        <mxCell id="Yu_vnYscOk4ueQ48UthJ-65" value="" style="endArrow=block;dashed=1;endFill=0;endSize=12;html=1;" parent="1" source="Yu_vnYscOk4ueQ48UthJ-23" target="Yu_vnYscOk4ueQ48UthJ-52" edge="1">
          <mxGeometry width="160" relative="1" as="geometry">
            <mxPoint x="619.9999999999995" y="535" as="sourcePoint" />
            <mxPoint x="659.9999999999995" y="535" as="targetPoint" />
            <Array as="points">
              <mxPoint x="685" y="450" />
            </Array>
          </mxGeometry>
        </mxCell>
        <mxCell id="Yu_vnYscOk4ueQ48UthJ-66" value="" style="endArrow=diamondThin;endFill=1;endSize=24;html=1;" parent="1" source="Yu_vnYscOk4ueQ48UthJ-52" target="Yu_vnYscOk4ueQ48UthJ-26" edge="1">
          <mxGeometry width="160" relative="1" as="geometry">
            <mxPoint x="539.9999999999995" y="180.00411764705888" as="sourcePoint" />
            <mxPoint x="449.99999999999955" y="183.70999999999998" as="targetPoint" />
          </mxGeometry>
        </mxCell>
        <mxCell id="j5BLqk-0MgdrymZYCmfH-13" value="&amp;nbsp; &amp;nbsp; -szomszedok&lt;br&gt;0...*" style="edgeLabel;html=1;align=center;verticalAlign=middle;resizable=0;points=[];" parent="Yu_vnYscOk4ueQ48UthJ-66" vertex="1" connectable="0">
          <mxGeometry x="0.4309" y="3" relative="1" as="geometry">
            <mxPoint x="-12.29" y="31.54" as="offset" />
          </mxGeometry>
        </mxCell>
        <mxCell id="Yu_vnYscOk4ueQ48UthJ-67" value="" style="endArrow=diamondThin;endFill=1;endSize=24;html=1;" parent="1" source="Yu_vnYscOk4ueQ48UthJ-37" target="Yu_vnYscOk4ueQ48UthJ-23" edge="1">
          <mxGeometry width="160" relative="1" as="geometry">
            <mxPoint x="439.99999999999955" y="115.2941176470589" as="sourcePoint" />
            <mxPoint x="349.99999999999955" y="119" as="targetPoint" />
          </mxGeometry>
        </mxCell>
        <mxCell id="j5BLqk-0MgdrymZYCmfH-18" value="- mag&lt;br&gt;0..1" style="edgeLabel;html=1;align=center;verticalAlign=middle;resizable=0;points=[];" parent="Yu_vnYscOk4ueQ48UthJ-67" vertex="1" connectable="0">
          <mxGeometry x="0.5441" y="2" relative="1" as="geometry">
            <mxPoint x="-18.92" y="-17.37" as="offset" />
          </mxGeometry>
        </mxCell>
        <mxCell id="Yu_vnYscOk4ueQ48UthJ-68" value="" style="endArrow=diamondThin;endFill=1;endSize=24;html=1;exitX=0.5;exitY=0;exitDx=0;exitDy=0;" parent="1" source="Yu_vnYscOk4ueQ48UthJ-23" target="Yu_vnYscOk4ueQ48UthJ-9" edge="1">
          <mxGeometry width="160" relative="1" as="geometry">
            <mxPoint x="419.99999999999955" y="350.86956521739125" as="sourcePoint" />
            <mxPoint x="489.99999999999955" y="341.1304347826085" as="targetPoint" />
          </mxGeometry>
        </mxCell>
        <mxCell id="j5BLqk-0MgdrymZYCmfH-15" value="- aszteroidak&lt;br&gt;1..*" style="edgeLabel;html=1;align=center;verticalAlign=middle;resizable=0;points=[];" parent="Yu_vnYscOk4ueQ48UthJ-68" vertex="1" connectable="0">
          <mxGeometry x="0.4469" y="1" relative="1" as="geometry">
            <mxPoint x="-46.78" y="18.490000000000002" as="offset" />
          </mxGeometry>
        </mxCell>
        <mxCell id="Yu_vnYscOk4ueQ48UthJ-74" value="" style="endArrow=none;html=1;edgeStyle=orthogonalEdgeStyle;entryX=0;entryY=0.5;entryDx=0;entryDy=0;" parent="1" source="Yu_vnYscOk4ueQ48UthJ-23" target="Yu_vnYscOk4ueQ48UthJ-36" edge="1">
          <mxGeometry relative="1" as="geometry">
            <mxPoint x="670" y="380" as="sourcePoint" />
            <mxPoint x="830" y="380" as="targetPoint" />
            <Array as="points">
              <mxPoint x="830" y="380" />
              <mxPoint x="830" y="470" />
              <mxPoint x="1110" y="470" />
            </Array>
          </mxGeometry>
        </mxCell>
        <mxCell id="Yu_vnYscOk4ueQ48UthJ-75" value="- hajok&lt;br&gt;0..*" style="edgeLabel;resizable=0;html=1;align=left;verticalAlign=bottom;" parent="Yu_vnYscOk4ueQ48UthJ-74" connectable="0" vertex="1">
          <mxGeometry x="-1" relative="1" as="geometry">
            <mxPoint x="400" y="90" as="offset" />
          </mxGeometry>
        </mxCell>
        <mxCell id="Yu_vnYscOk4ueQ48UthJ-76" value="#aszteroida&lt;br&gt;1" style="edgeLabel;resizable=0;html=1;align=right;verticalAlign=bottom;" parent="Yu_vnYscOk4ueQ48UthJ-74" connectable="0" vertex="1">
          <mxGeometry x="1" relative="1" as="geometry">
            <mxPoint x="-390" y="-92" as="offset" />
          </mxGeometry>
        </mxCell>
        <mxCell id="j5BLqk-0MgdrymZYCmfH-1" value="Szen" style="swimlane;fontStyle=1;align=center;verticalAlign=top;childLayout=stackLayout;horizontal=1;startSize=26;horizontalStack=0;resizeParent=1;resizeParentMax=0;resizeLast=0;collapsible=1;marginBottom=0;html=1;" parent="1" vertex="1">
          <mxGeometry x="10" y="360" width="160" height="60" as="geometry" />
        </mxCell>
        <mxCell id="j5BLqk-0MgdrymZYCmfH-3" value="" style="line;strokeWidth=1;fillColor=none;align=left;verticalAlign=middle;spacingTop=-1;spacingLeft=3;spacingRight=3;rotatable=0;labelPosition=right;points=[];portConstraint=eastwest;" parent="j5BLqk-0MgdrymZYCmfH-1" vertex="1">
          <mxGeometry y="26" width="160" height="8" as="geometry" />
        </mxCell>
        <mxCell id="j5BLqk-0MgdrymZYCmfH-4" value="+ Megfurva˙(a:Aszteroida)" style="text;strokeColor=none;fillColor=none;align=left;verticalAlign=top;spacingLeft=4;spacingRight=4;overflow=hidden;rotatable=0;points=[[0,0.5],[1,0.5]];portConstraint=eastwest;" parent="j5BLqk-0MgdrymZYCmfH-1" vertex="1">
          <mxGeometry y="34" width="160" height="26" as="geometry" />
        </mxCell>
        <mxCell id="j5BLqk-0MgdrymZYCmfH-11" style="edgeStyle=orthogonalEdgeStyle;rounded=0;orthogonalLoop=1;jettySize=auto;html=1;exitX=0.25;exitY=0;exitDx=0;exitDy=0;entryX=0.75;entryY=0;entryDx=0;entryDy=0;" parent="1" source="Yu_vnYscOk4ueQ48UthJ-44" target="Yu_vnYscOk4ueQ48UthJ-44" edge="1">
          <mxGeometry relative="1" as="geometry">
            <Array as="points">
              <mxPoint x="335" y="430" />
              <mxPoint x="425" y="430" />
            </Array>
          </mxGeometry>
        </mxCell>
        <mxCell id="j5BLqk-0MgdrymZYCmfH-12" value="-par&lt;br&gt;1" style="edgeLabel;html=1;align=center;verticalAlign=middle;resizable=0;points=[];" parent="j5BLqk-0MgdrymZYCmfH-11" vertex="1" connectable="0">
          <mxGeometry x="0.3385" relative="1" as="geometry">
            <mxPoint x="5" y="-10" as="offset" />
          </mxGeometry>
        </mxCell>
        <mxCell id="c0RVI4-9g-hND24otLmP-5" value="Epitheto" style="swimlane;fontStyle=3;align=center;verticalAlign=top;childLayout=stackLayout;horizontal=1;startSize=30;horizontalStack=0;resizeParent=1;resizeParentMax=0;resizeLast=0;collapsible=1;marginBottom=0;html=1;" parent="1" vertex="1">
          <mxGeometry x="10" y="770" width="220" height="120" as="geometry" />
        </mxCell>
        <mxCell id="c0RVI4-9g-hND24otLmP-8" value="+ Hozzaad(n: Nyersanyag)&lt;br&gt;+ KellE(n: Nyersanyag) : bool&lt;br&gt;+ EpithetoE() : bool&lt;br&gt;+ Reset()&lt;br&gt;+ &lt;i&gt;Letrejon(a: Aszteroida) :&amp;nbsp;&lt;/i&gt;Szallithato[]&amp;nbsp;" style="text;strokeColor=none;fillColor=none;align=left;verticalAlign=top;spacingLeft=4;spacingRight=4;overflow=hidden;rotatable=0;points=[[0,0.5],[1,0.5]];portConstraint=eastwest;html=1;" parent="c0RVI4-9g-hND24otLmP-5" vertex="1">
          <mxGeometry y="30" width="220" height="90" as="geometry" />
        </mxCell>
        <mxCell id="g-Dt7dvurQJU8qSfWDLR-1" value="Vizjeg" style="swimlane;fontStyle=1;align=center;verticalAlign=top;childLayout=stackLayout;horizontal=1;startSize=26;horizontalStack=0;resizeParent=1;resizeParentMax=0;resizeLast=0;collapsible=1;marginBottom=0;" parent="1" vertex="1">
          <mxGeometry x="10" y="158" width="160" height="60" as="geometry" />
        </mxCell>
        <mxCell id="g-Dt7dvurQJU8qSfWDLR-3" value="" style="line;strokeWidth=1;fillColor=none;align=left;verticalAlign=middle;spacingTop=-1;spacingLeft=3;spacingRight=3;rotatable=0;labelPosition=right;points=[];portConstraint=eastwest;" parent="g-Dt7dvurQJU8qSfWDLR-1" vertex="1">
          <mxGeometry y="26" width="160" height="8" as="geometry" />
        </mxCell>
        <mxCell id="g-Dt7dvurQJU8qSfWDLR-4" value="+ Megfurva(a:Aszteroida)&#xa;" style="text;strokeColor=none;fillColor=none;align=left;verticalAlign=top;spacingLeft=4;spacingRight=4;overflow=hidden;rotatable=0;points=[[0,0.5],[1,0.5]];portConstraint=eastwest;" parent="g-Dt7dvurQJU8qSfWDLR-1" vertex="1">
          <mxGeometry y="34" width="160" height="26" as="geometry" />
        </mxCell>
        <mxCell id="hmeGDV1KWvklOMG0HE1g-1" value="Vas" style="swimlane;fontStyle=1;align=center;verticalAlign=top;childLayout=stackLayout;horizontal=1;startSize=26;horizontalStack=0;resizeParent=1;resizeParentMax=0;resizeLast=0;collapsible=1;marginBottom=0;html=1;" parent="1" vertex="1">
          <mxGeometry x="10" y="70" width="160" height="60" as="geometry" />
        </mxCell>
        <mxCell id="hmeGDV1KWvklOMG0HE1g-2" value="" style="line;strokeWidth=1;fillColor=none;align=left;verticalAlign=middle;spacingTop=-1;spacingLeft=3;spacingRight=3;rotatable=0;labelPosition=right;points=[];portConstraint=eastwest;" parent="hmeGDV1KWvklOMG0HE1g-1" vertex="1">
          <mxGeometry y="26" width="160" height="8" as="geometry" />
        </mxCell>
        <mxCell id="hmeGDV1KWvklOMG0HE1g-3" value="+ Megfurva˙(a:Aszteroida)&#xa;)" style="text;strokeColor=none;fillColor=none;align=left;verticalAlign=top;spacingLeft=4;spacingRight=4;overflow=hidden;rotatable=0;points=[[0,0.5],[1,0.5]];portConstraint=eastwest;" parent="hmeGDV1KWvklOMG0HE1g-1" vertex="1">
          <mxGeometry y="34" width="160" height="26" as="geometry" />
        </mxCell>
        <mxCell id="CY1RZqDMAMl4AqE-WYTl-9" value="Extends" style="endArrow=block;endSize=16;endFill=0;html=1;" parent="1" source="j5BLqk-0MgdrymZYCmfH-1" target="Yu_vnYscOk4ueQ48UthJ-37" edge="1">
          <mxGeometry width="160" relative="1" as="geometry">
            <mxPoint x="480" y="340" as="sourcePoint" />
            <mxPoint x="640" y="340" as="targetPoint" />
            <Array as="points">
              <mxPoint x="240" y="360" />
            </Array>
          </mxGeometry>
        </mxCell>
        <mxCell id="CY1RZqDMAMl4AqE-WYTl-10" value="Extends" style="endArrow=block;endSize=16;endFill=0;html=1;" parent="1" source="g-Dt7dvurQJU8qSfWDLR-1" target="Yu_vnYscOk4ueQ48UthJ-37" edge="1">
          <mxGeometry width="160" relative="1" as="geometry">
            <mxPoint x="210" y="180" as="sourcePoint" />
            <mxPoint x="370" y="180" as="targetPoint" />
            <Array as="points">
              <mxPoint x="220" y="209" />
            </Array>
          </mxGeometry>
        </mxCell>
        <mxCell id="CY1RZqDMAMl4AqE-WYTl-11" value="Extends" style="endArrow=block;endSize=16;endFill=0;html=1;" parent="1" source="Yu_vnYscOk4ueQ48UthJ-41" target="Yu_vnYscOk4ueQ48UthJ-37" edge="1">
          <mxGeometry x="-0.3251" y="-20" width="160" relative="1" as="geometry">
            <mxPoint x="480" y="340" as="sourcePoint" />
            <mxPoint x="640" y="340" as="targetPoint" />
            <Array as="points">
              <mxPoint x="200" y="260" />
            </Array>
            <mxPoint as="offset" />
          </mxGeometry>
        </mxCell>
        <mxCell id="CY1RZqDMAMl4AqE-WYTl-12" value="" style="endArrow=diamondThin;endFill=1;endSize=24;html=1;" parent="1" source="Yu_vnYscOk4ueQ48UthJ-23" target="Yu_vnYscOk4ueQ48UthJ-44" edge="1">
          <mxGeometry width="160" relative="1" as="geometry">
            <mxPoint x="360" y="400" as="sourcePoint" />
            <mxPoint x="520" y="400" as="targetPoint" />
            <Array as="points">
              <mxPoint x="470" y="500" />
            </Array>
          </mxGeometry>
        </mxCell>
        <mxCell id="CY1RZqDMAMl4AqE-WYTl-13" value="- sajatAszteroida&lt;br&gt;1" style="edgeLabel;html=1;align=center;verticalAlign=middle;resizable=0;points=[];" parent="CY1RZqDMAMl4AqE-WYTl-12" vertex="1" connectable="0">
          <mxGeometry x="-0.0072" y="2" relative="1" as="geometry">
            <mxPoint x="56.39999999999999" y="-20.54" as="offset" />
          </mxGeometry>
        </mxCell>
        <mxCell id="CY1RZqDMAMl4AqE-WYTl-15" value="Extends" style="endArrow=block;endSize=16;endFill=0;html=1;entryX=0.462;entryY=-0.004;entryDx=0;entryDy=0;entryPerimeter=0;" parent="1" source="hmeGDV1KWvklOMG0HE1g-1" target="Yu_vnYscOk4ueQ48UthJ-37" edge="1">
          <mxGeometry width="160" relative="1" as="geometry">
            <mxPoint x="110" y="390" as="sourcePoint" />
            <mxPoint x="270" y="390" as="targetPoint" />
          </mxGeometry>
        </mxCell>
        <mxCell id="otTIYUXG52ubzt-L9H4G-1" value="TeleportEpito" style="swimlane;fontStyle=1;align=center;verticalAlign=top;childLayout=stackLayout;horizontal=1;startSize=26;horizontalStack=0;resizeParent=1;resizeParentMax=0;resizeLast=0;collapsible=1;marginBottom=0;" parent="1" vertex="1">
          <mxGeometry x="350" y="720" width="160" height="60" as="geometry" />
        </mxCell>
        <mxCell id="otTIYUXG52ubzt-L9H4G-3" value="" style="line;strokeWidth=1;fillColor=none;align=left;verticalAlign=middle;spacingTop=-1;spacingLeft=3;spacingRight=3;rotatable=0;labelPosition=right;points=[];portConstraint=eastwest;" parent="otTIYUXG52ubzt-L9H4G-1" vertex="1">
          <mxGeometry y="26" width="160" height="8" as="geometry" />
        </mxCell>
        <mxCell id="otTIYUXG52ubzt-L9H4G-4" value="+ Letrejon(t: Telepes)" style="text;strokeColor=none;fillColor=none;align=left;verticalAlign=top;spacingLeft=4;spacingRight=4;overflow=hidden;rotatable=0;points=[[0,0.5],[1,0.5]];portConstraint=eastwest;" parent="otTIYUXG52ubzt-L9H4G-1" vertex="1">
          <mxGeometry y="34" width="160" height="26" as="geometry" />
        </mxCell>
        <mxCell id="otTIYUXG52ubzt-L9H4G-5" value="RobotEpito" style="swimlane;fontStyle=1;align=center;verticalAlign=top;childLayout=stackLayout;horizontal=1;startSize=26;horizontalStack=0;resizeParent=1;resizeParentMax=0;resizeLast=0;collapsible=1;marginBottom=0;" parent="1" vertex="1">
          <mxGeometry x="350" y="790" width="160" height="60" as="geometry" />
        </mxCell>
        <mxCell id="otTIYUXG52ubzt-L9H4G-7" value="" style="line;strokeWidth=1;fillColor=none;align=left;verticalAlign=middle;spacingTop=-1;spacingLeft=3;spacingRight=3;rotatable=0;labelPosition=right;points=[];portConstraint=eastwest;" parent="otTIYUXG52ubzt-L9H4G-5" vertex="1">
          <mxGeometry y="26" width="160" height="8" as="geometry" />
        </mxCell>
        <mxCell id="otTIYUXG52ubzt-L9H4G-8" value="+ Letrejon(t: Telepes)" style="text;strokeColor=none;fillColor=none;align=left;verticalAlign=top;spacingLeft=4;spacingRight=4;overflow=hidden;rotatable=0;points=[[0,0.5],[1,0.5]];portConstraint=eastwest;" parent="otTIYUXG52ubzt-L9H4G-5" vertex="1">
          <mxGeometry y="34" width="160" height="26" as="geometry" />
        </mxCell>
        <mxCell id="otTIYUXG52ubzt-L9H4G-9" value="Gyozelem&#xa;" style="swimlane;fontStyle=1;align=center;verticalAlign=top;childLayout=stackLayout;horizontal=1;startSize=26;horizontalStack=0;resizeParent=1;resizeParentMax=0;resizeLast=0;collapsible=1;marginBottom=0;" parent="1" vertex="1">
          <mxGeometry x="350" y="930" width="160" height="60" as="geometry" />
        </mxCell>
        <mxCell id="otTIYUXG52ubzt-L9H4G-11" value="" style="line;strokeWidth=1;fillColor=none;align=left;verticalAlign=middle;spacingTop=-1;spacingLeft=3;spacingRight=3;rotatable=0;labelPosition=right;points=[];portConstraint=eastwest;" parent="otTIYUXG52ubzt-L9H4G-9" vertex="1">
          <mxGeometry y="26" width="160" height="8" as="geometry" />
        </mxCell>
        <mxCell id="otTIYUXG52ubzt-L9H4G-12" value="+ Letrejon(t: Telepes)" style="text;strokeColor=none;fillColor=none;align=left;verticalAlign=top;spacingLeft=4;spacingRight=4;overflow=hidden;rotatable=0;points=[[0,0.5],[1,0.5]];portConstraint=eastwest;" parent="otTIYUXG52ubzt-L9H4G-9" vertex="1">
          <mxGeometry y="34" width="160" height="26" as="geometry" />
        </mxCell>
        <mxCell id="otTIYUXG52ubzt-L9H4G-13" value="Nyerheto" style="swimlane;fontStyle=1;align=center;verticalAlign=top;childLayout=stackLayout;horizontal=1;startSize=26;horizontalStack=0;resizeParent=1;resizeParentMax=0;resizeLast=0;collapsible=1;marginBottom=0;" parent="1" vertex="1">
          <mxGeometry x="350" y="860" width="160" height="60" as="geometry" />
        </mxCell>
        <mxCell id="otTIYUXG52ubzt-L9H4G-14" value="" style="line;strokeWidth=1;fillColor=none;align=left;verticalAlign=middle;spacingTop=-1;spacingLeft=3;spacingRight=3;rotatable=0;labelPosition=right;points=[];portConstraint=eastwest;" parent="otTIYUXG52ubzt-L9H4G-13" vertex="1">
          <mxGeometry y="26" width="160" height="8" as="geometry" />
        </mxCell>
        <mxCell id="otTIYUXG52ubzt-L9H4G-15" value="+ Letrejon(t: Telepes)" style="text;strokeColor=none;fillColor=none;align=left;verticalAlign=top;spacingLeft=4;spacingRight=4;overflow=hidden;rotatable=0;points=[[0,0.5],[1,0.5]];portConstraint=eastwest;" parent="otTIYUXG52ubzt-L9H4G-13" vertex="1">
          <mxGeometry y="34" width="160" height="26" as="geometry" />
        </mxCell>
        <mxCell id="otTIYUXG52ubzt-L9H4G-16" value="Extends" style="endArrow=block;endSize=16;endFill=0;html=1;exitX=0;exitY=0.5;exitDx=0;exitDy=0;entryX=1.006;entryY=0.156;entryDx=0;entryDy=0;entryPerimeter=0;" parent="1" source="otTIYUXG52ubzt-L9H4G-4" target="c0RVI4-9g-hND24otLmP-8" edge="1">
          <mxGeometry width="160" relative="1" as="geometry">
            <mxPoint x="190" y="750" as="sourcePoint" />
            <mxPoint x="350" y="750" as="targetPoint" />
          </mxGeometry>
        </mxCell>
        <mxCell id="otTIYUXG52ubzt-L9H4G-17" value="Extends" style="endArrow=block;endSize=16;endFill=0;html=1;exitX=0;exitY=0.5;exitDx=0;exitDy=0;entryX=1;entryY=0.378;entryDx=0;entryDy=0;entryPerimeter=0;" parent="1" source="otTIYUXG52ubzt-L9H4G-8" target="c0RVI4-9g-hND24otLmP-8" edge="1">
          <mxGeometry width="160" relative="1" as="geometry">
            <mxPoint x="190" y="840" as="sourcePoint" />
            <mxPoint x="230" y="900" as="targetPoint" />
          </mxGeometry>
        </mxCell>
        <mxCell id="otTIYUXG52ubzt-L9H4G-18" value="Extends" style="endArrow=block;endSize=16;endFill=0;html=1;entryX=0.995;entryY=0.722;entryDx=0;entryDy=0;entryPerimeter=0;exitX=0;exitY=0.5;exitDx=0;exitDy=0;" parent="1" source="otTIYUXG52ubzt-L9H4G-15" target="c0RVI4-9g-hND24otLmP-8" edge="1">
          <mxGeometry width="160" relative="1" as="geometry">
            <mxPoint x="350" y="870" as="sourcePoint" />
            <mxPoint x="190" y="860" as="targetPoint" />
          </mxGeometry>
        </mxCell>
        <mxCell id="otTIYUXG52ubzt-L9H4G-19" value="Extends" style="endArrow=block;endSize=16;endFill=0;html=1;entryX=1.011;entryY=0.911;entryDx=0;entryDy=0;entryPerimeter=0;exitX=0;exitY=0.5;exitDx=0;exitDy=0;" parent="1" source="otTIYUXG52ubzt-L9H4G-12" target="c0RVI4-9g-hND24otLmP-8" edge="1">
          <mxGeometry width="160" relative="1" as="geometry">
            <mxPoint x="360" y="917" as="sourcePoint" />
            <mxPoint x="200" y="870" as="targetPoint" />
          </mxGeometry>
        </mxCell>
        <mxCell id="ukz5CPIiTdQrS9NJxEVM-8" value="" style="endArrow=open;html=1;strokeWidth=1;endSize=12;endFill=0;dashed=1;" parent="1" source="Yu_vnYscOk4ueQ48UthJ-33" target="c0RVI4-9g-hND24otLmP-5" edge="1">
          <mxGeometry width="50" height="50" relative="1" as="geometry">
            <mxPoint x="1170" y="860" as="sourcePoint" />
            <mxPoint x="810" y="870" as="targetPoint" />
            <Array as="points">
              <mxPoint x="780" y="710" />
              <mxPoint x="250" y="700" />
            </Array>
          </mxGeometry>
        </mxCell>
        <mxCell id="2Pd0qxF-lVTsq59Gjp39-1" value="" style="endArrow=open;endFill=1;endSize=12;html=1;entryX=0.174;entryY=0.016;entryDx=0;entryDy=0;entryPerimeter=0;" parent="1" source="Yu_vnYscOk4ueQ48UthJ-12" target="Yu_vnYscOk4ueQ48UthJ-22" edge="1">
          <mxGeometry width="160" relative="1" as="geometry">
            <mxPoint x="747" y="170" as="sourcePoint" />
            <mxPoint x="907" y="170" as="targetPoint" />
          </mxGeometry>
        </mxCell>
        <mxCell id="2Pd0qxF-lVTsq59Gjp39-4" value="- aiVezerli&lt;br&gt;0..*" style="edgeLabel;html=1;align=center;verticalAlign=middle;resizable=0;points=[];" parent="2Pd0qxF-lVTsq59Gjp39-1" vertex="1" connectable="0">
          <mxGeometry x="0.4392" y="-1" relative="1" as="geometry">
            <mxPoint x="-40.89" y="1.7" as="offset" />
          </mxGeometry>
        </mxCell>
        <mxCell id="2Pd0qxF-lVTsq59Gjp39-2" value="" style="endArrow=open;endFill=1;endSize=12;html=1;exitX=1;exitY=0.5;exitDx=0;exitDy=0;" parent="1" source="Yu_vnYscOk4ueQ48UthJ-12" target="Yu_vnYscOk4ueQ48UthJ-22" edge="1">
          <mxGeometry width="160" relative="1" as="geometry">
            <mxPoint x="790" y="110" as="sourcePoint" />
            <mxPoint x="950" y="110" as="targetPoint" />
          </mxGeometry>
        </mxCell>
        <mxCell id="2Pd0qxF-lVTsq59Gjp39-3" value="- jatekosVezerli&lt;br&gt;0..*" style="edgeLabel;html=1;align=center;verticalAlign=middle;resizable=0;points=[];" parent="2Pd0qxF-lVTsq59Gjp39-2" vertex="1" connectable="0">
          <mxGeometry x="0.1982" y="1" relative="1" as="geometry">
            <mxPoint x="64.08999999999999" y="27.15" as="offset" />
          </mxGeometry>
        </mxCell>
        <mxCell id="2Pd0qxF-lVTsq59Gjp39-5" value="" style="endArrow=open;endSize=12;dashed=1;html=1;exitX=0.932;exitY=-0.016;exitDx=0;exitDy=0;exitPerimeter=0;" parent="1" source="Yu_vnYscOk4ueQ48UthJ-22" target="Yu_vnYscOk4ueQ48UthJ-9" edge="1">
          <mxGeometry x="-0.1303" y="-49" width="160" relative="1" as="geometry">
            <mxPoint x="770" y="520" as="sourcePoint" />
            <mxPoint x="930" y="520" as="targetPoint" />
            <Array as="points">
              <mxPoint x="870" y="60" />
            </Array>
            <mxPoint as="offset" />
          </mxGeometry>
        </mxCell>
        <mxCell id="fkeaxKAUhILKXTr-ferc-1" value="" style="endArrow=diamondThin;endFill=1;endSize=24;html=1;" parent="1" source="Yu_vnYscOk4ueQ48UthJ-53" target="Yu_vnYscOk4ueQ48UthJ-33" edge="1">
          <mxGeometry width="160" relative="1" as="geometry">
            <mxPoint x="60" y="659" as="sourcePoint" />
            <mxPoint x="870.0000000000005" y="672" as="targetPoint" />
            <Array as="points">
              <mxPoint x="120" y="675" />
            </Array>
          </mxGeometry>
        </mxCell>
        <mxCell id="fkeaxKAUhILKXTr-ferc-2" value="- teleportkapuRakter&lt;br&gt;0..2" style="edgeLabel;html=1;align=center;verticalAlign=middle;resizable=0;points=[];" parent="fkeaxKAUhILKXTr-ferc-1" vertex="1" connectable="0">
          <mxGeometry x="0.8859" y="-6" relative="1" as="geometry">
            <mxPoint x="-716.6999999999999" y="-23.599999999999994" as="offset" />
          </mxGeometry>
        </mxCell>
      </root>
    </mxGraphModel>
  </diagram>
</mxfile>
